<svg width="32" height="32" viewBox="0 0 32 32" fill="none" xmlns="http://www.w3.org/2000/svg">
<rect width="32" height="32" rx="10" fill="#FF8484"/>
<g clip-path="url(#clip0_4_347)">
<path d="M18.207 13.7969C18 13.7969 17.8322 13.9646 17.8322 14.1716V21.2535C17.8322 21.4604 18 21.6283 18.207 21.6283C18.4139 21.6283 18.5817 21.4604 18.5817 21.2535V14.1716C18.5817 13.9646 18.4139 13.7969 18.207 13.7969Z" fill="white"/>
<path d="M13.7854 13.7969C13.5785 13.7969 13.4107 13.9646 13.4107 14.1716V21.2535C13.4107 21.4604 13.5785 21.6283 13.7854 21.6283C13.9924 21.6283 14.1602 21.4604 14.1602 21.2535V14.1716C14.1602 13.9646 13.9924 13.7969 13.7854 13.7969Z" fill="white"/>
<path d="M10.5629 12.7634V21.9953C10.5629 22.541 10.763 23.0534 11.1126 23.4211C11.4605 23.7898 11.9447 23.9991 12.4514 24H19.541C20.0478 23.9991 20.532 23.7898 20.8798 23.4211C21.2293 23.0534 21.4294 22.541 21.4294 21.9953V12.7634C22.1242 12.5789 22.5745 11.9077 22.4815 11.1947C22.3884 10.4819 21.7811 9.94867 21.0622 9.94852H19.1437V9.48014C19.1459 9.08626 18.9902 8.70804 18.7113 8.42979C18.4325 8.15169 18.0537 7.99683 17.6598 8.00005H14.3325C13.9387 7.99683 13.5599 8.15169 13.281 8.42979C13.0022 8.70804 12.8465 9.08626 12.8487 9.48014V9.94852H10.9302C10.2112 9.94867 9.60393 10.4819 9.51084 11.1947C9.4179 11.9077 9.86813 12.5789 10.5629 12.7634ZM19.541 23.2506H12.4514C11.8107 23.2506 11.3124 22.7002 11.3124 21.9953V12.7963H20.68V21.9953C20.68 22.7002 20.1816 23.2506 19.541 23.2506ZM13.5981 9.48014C13.5956 9.28503 13.6723 9.09724 13.8107 8.9595C13.9491 8.82177 14.1373 8.74609 14.3325 8.74946H17.6598C17.8551 8.74609 18.0433 8.82177 18.1816 8.9595C18.3201 9.09709 18.3968 9.28503 18.3943 9.48014V9.94852H13.5981V9.48014ZM10.9302 10.6979H21.0622C21.4347 10.6979 21.7367 10.9999 21.7367 11.3724C21.7367 11.7449 21.4347 12.0469 21.0622 12.0469H10.9302C10.5577 12.0469 10.2557 11.7449 10.2557 11.3724C10.2557 10.9999 10.5577 10.6979 10.9302 10.6979Z" fill="white"/>
<path d="M15.9962 13.7969C15.7892 13.7969 15.6215 13.9646 15.6215 14.1716V21.2535C15.6215 21.4604 15.7892 21.6283 15.9962 21.6283C16.2032 21.6283 16.3709 21.4604 16.3709 21.2535V14.1716C16.3709 13.9646 16.2032 13.7969 15.9962 13.7969Z" fill="white"/>
</g>
<defs>
<clipPath id="clip0_4_347">
<rect width="16" height="16" fill="white" transform="translate(8 8)"/>
</clipPath>
</defs>
</svg>
